<?xml version="1.0" encoding="utf-8"?><!-- Uploaded to: SVG Repo, www.svgrepo.com, Generator: SVG Repo Mixer Tools -->
<svg version="1.1" id="designs" xmlns="http://www.w3.org/2000/svg" xmlns:xlink="http://www.w3.org/1999/xlink" 
	 width="800px" height="800px" viewBox="0 0 32 32" xml:space="preserve">
<style type="text/css">
	.sketchy_een{fill:#111918;}
</style>
<path class="sketchy_een" d="M14.469,10.767c-0.042-0.032-0.083-0.065-0.125-0.097c0.04,0.031,0.08,0.062,0.12,0.093
	C14.466,10.765,14.468,10.766,14.469,10.767z M14.482,10.777c-0.001-0.001-0.002-0.002-0.003-0.003
	c-0.003-0.002-0.006-0.005-0.009-0.007C14.474,10.771,14.478,10.774,14.482,10.777z M28.799,24.2
	c0.011,0.211-0.055,0.424-0.219,0.573c-0.7,0.644-1.385,1.304-2.045,1.989c-0.295,0.307-0.586,0.619-0.887,0.923
	c-0.246,0.25-0.496,0.505-0.719,0.779c-0.122,0.147-0.354,0.221-0.539,0.221c-0.145,0-0.28-0.054-0.402-0.131
	c-0.161-0.018-0.319-0.077-0.44-0.199c-0.475-0.478-0.962-0.942-1.442-1.415c-0.565-0.557-1.128-1.12-1.707-1.665
	c-0.556-0.525-1.128-1.029-1.667-1.572c-0.552-0.552-1.111-1.09-1.707-1.597c-0.276-0.235-0.535-0.488-0.801-0.733
	c-0.295,0.284-0.59,0.567-0.877,0.86c-0.518,0.529-1.005,1.086-1.532,1.608c-0.541,0.534-1.099,1.05-1.615,1.61
	c-0.511,0.552-1.018,1.104-1.545,1.64c-0.255,0.261-0.505,0.525-0.759,0.788c-0.196,0.201-0.405,0.388-0.604,0.584
	c-0.21,0.207-0.513,0.262-0.779,0.178c-0.012,0.014-0.017,0.033-0.031,0.047c-0.295,0.293-0.804,0.304-1.095,0
	c-0.131-0.137-0.261-0.277-0.403-0.403c-0.167-0.149-0.345-0.288-0.518-0.433c-0.379-0.318-0.761-0.635-1.111-0.984
	c-0.721-0.712-1.43-1.441-2.117-2.187c-0.185-0.2-0.244-0.471-0.181-0.719c-0.033-0.087-0.054-0.178-0.054-0.272
	c0-0.191,0.077-0.424,0.228-0.55c0.135-0.113,0.268-0.23,0.397-0.351c0.284-0.266,0.563-0.536,0.852-0.795
	c0.279-0.25,0.572-0.487,0.851-0.739c0.561-0.502,1.088-1.036,1.617-1.57c1.09-1.102,2.217-2.165,3.304-3.268
	c0.168-0.17,0.337-0.338,0.505-0.507c-0.025-0.023-0.05-0.047-0.074-0.07c-0.608-0.579-1.203-1.171-1.82-1.741
	c-0.326-0.3-0.656-0.597-0.973-0.91C7.587,12.89,7.292,12.585,6.976,12.3c-0.602-0.545-1.239-1.047-1.869-1.559
	c-0.32-0.259-0.629-0.534-0.944-0.802C3.879,9.696,3.584,9.468,3.291,9.234C3.131,9.105,3.05,8.848,3.05,8.651
	c0-0.219,0.088-0.43,0.241-0.584c0.021-0.021,0.05-0.03,0.073-0.048c0.024-0.156,0.088-0.287,0.191-0.414
	c0.505-0.62,1.106-1.149,1.647-1.737c0.682-0.737,1.311-1.52,2.023-2.226C7.373,3.494,7.569,3.42,7.766,3.42
	c0.196,0,0.391,0.073,0.539,0.221C8.37,3.707,8.417,3.785,8.453,3.868C8.665,4.08,8.892,4.278,9.119,4.474
	c0.288,0.245,0.577,0.487,0.869,0.728c0.567,0.466,1.108,0.96,1.671,1.43c0.568,0.471,1.144,0.933,1.721,1.396
	c0.522,0.415,1.009,0.871,1.53,1.285c0.477,0.356,0.949,0.718,1.408,1.097c0.175-0.175,0.35-0.351,0.527-0.525
	c0.534-0.529,1.092-1.029,1.642-1.539c0.567-0.522,1.115-1.063,1.671-1.593c0.581-0.554,1.158-1.108,1.712-1.687
	c0.541-0.565,1.032-1.173,1.539-1.766c0.122-0.144,0.3-0.209,0.482-0.209c0.194,0,0.39,0.076,0.523,0.209
	c0.088,0.088,0.139,0.2,0.172,0.318c0.001,0.001,0.003,0.002,0.005,0.003c0.707,0.629,1.399,1.275,2.092,1.923
	c0.518,0.485,1,1.009,1.55,1.46c0.017,0.011,0.034,0.021,0.052,0.031c0.044,0.019,0.086,0.038,0.127,0.061
	c0.388,0.216,0.514,0.739,0.293,1.117c-0.058,0.099-0.14,0.181-0.234,0.247c-0.019,0.151-0.074,0.298-0.189,0.411
	c-0.552,0.539-1.083,1.102-1.611,1.665c-0.527,0.557-1.061,1.11-1.586,1.669c-0.522,0.557-1.039,1.117-1.561,1.674
	c-0.545,0.584-1.081,1.176-1.638,1.75c-0.098,0.1-0.196,0.2-0.293,0.3c0.142,0.137,0.285,0.273,0.423,0.415
	c0.541,0.559,1.113,1.086,1.698,1.601c0.286,0.252,0.576,0.502,0.842,0.773c0.275,0.281,0.532,0.576,0.79,0.87
	c0.277,0.318,0.563,0.624,0.861,0.921c0.268,0.266,0.549,0.518,0.815,0.784c0.594,0.601,1.169,1.223,1.757,1.829
	C29.063,23.419,29.074,23.891,28.799,24.2z M27.315,23.859c-0.249-0.27-0.499-0.54-0.743-0.814c-0.264-0.299-0.532-0.592-0.82-0.87
	c-0.275-0.268-0.559-0.529-0.834-0.799c-0.574-0.563-1.065-1.207-1.655-1.753c-0.563-0.522-1.14-1.025-1.703-1.545
	c-0.284-0.264-0.556-0.538-0.824-0.818c-0.246-0.257-0.511-0.498-0.766-0.748c-0.3-0.297-0.297-0.799,0-1.097
	c0.07-0.069,0.153-0.12,0.24-0.157c0.208-0.209,0.416-0.419,0.623-0.63c1.101-1.124,2.144-2.304,3.252-3.422
	c0.539-0.545,1.077-1.093,1.602-1.653c0.464-0.495,0.917-1.003,1.392-1.488c-0.118-0.118-0.243-0.229-0.366-0.344
	c-0.153-0.144-0.315-0.281-0.459-0.435c-0.158-0.167-0.318-0.335-0.48-0.498c-0.358-0.358-0.716-0.712-1.084-1.057
	c-0.28-0.264-0.577-0.51-0.871-0.759c-0.458,0.512-0.919,1.02-1.413,1.496c-0.586,0.563-1.185,1.115-1.77,1.682
	c-0.536,0.52-1.07,1.038-1.615,1.547c-0.561,0.522-1.113,1.05-1.642,1.602c-0.219,0.23-0.412,0.419-0.729,0.619
	c-0.317,0.2-0.655,0.15-0.914-0.084c-0.435-0.396-0.885-0.766-1.349-1.128c0.049,0.038,0.097,0.076,0.146,0.113
	c-0.018-0.014-0.036-0.028-0.054-0.042c-0.005-0.004-0.009-0.007-0.014-0.011c-0.042-0.033-0.085-0.067-0.128-0.1
	c0.003,0.002,0.005,0.004,0.008,0.006c-0.022-0.017-0.045-0.035-0.067-0.052c0.025,0.02,0.049,0.039,0.074,0.059
	c-0.133-0.104-0.27-0.207-0.403-0.313c-0.572-0.451-1.106-0.944-1.676-1.399c-0.576-0.459-1.151-0.919-1.719-1.388
	C9.984,7.107,9.447,6.603,8.871,6.145C8.506,5.853,8.154,5.542,7.8,5.235C7.585,5.453,7.366,5.666,7.16,5.891
	C6.838,6.243,6.535,6.612,6.209,6.959C5.925,7.263,5.617,7.54,5.324,7.833C5.152,8.007,4.99,8.193,4.825,8.375
	c0.582,0.486,1.151,0.987,1.748,1.458c0.509,0.396,1.002,0.804,1.491,1.223c0.493,0.421,0.935,0.896,1.41,1.334
	c0.493,0.457,0.982,0.919,1.468,1.381c0.502,0.477,1.013,0.941,1.525,1.405c0.345,0.313,0.317,0.89,0,1.207
	c-0.089,0.089-0.191,0.15-0.299,0.19c-0.42,0.418-0.837,0.838-1.254,1.259c-0.552,0.556-1.122,1.097-1.685,1.644
	c-0.547,0.531-1.081,1.074-1.617,1.617c-0.284,0.286-0.568,0.572-0.86,0.851c-0.281,0.266-0.574,0.52-0.863,0.775
	c-0.446,0.393-0.86,0.818-1.274,1.243c0.268,0.297,0.534,0.597,0.817,0.88c0.326,0.322,0.66,0.638,0.998,0.95
	c0.365,0.336,0.746,0.651,1.131,0.966c0.183,0.151,0.374,0.295,0.549,0.457c0.044,0.04,0.083,0.085,0.125,0.127
	c0.445-0.446,0.901-0.88,1.349-1.323c0.534-0.529,1.039-1.083,1.552-1.631c0.52-0.556,1.083-1.068,1.624-1.602
	c0.511-0.507,0.987-1.049,1.491-1.561c0.317-0.325,0.646-0.638,0.974-0.952c-0.067-0.266-0.007-0.563,0.193-0.765
	c0.154-0.153,0.359-0.23,0.564-0.23c0.204,0,0.409,0.076,0.561,0.23c0.392,0.392,0.786,0.782,1.2,1.151
	c0.286,0.257,0.583,0.5,0.861,0.763c0.277,0.261,0.547,0.529,0.811,0.802c0.534,0.552,1.07,1.097,1.622,1.633
	c0.568,0.549,1.12,1.115,1.685,1.667c0.501,0.49,1.018,0.962,1.524,1.445c0.119-0.127,0.239-0.254,0.358-0.381
	c0.282-0.302,0.577-0.592,0.867-0.888c0.327-0.331,0.664-0.653,0.989-0.986C26.74,24.423,27.025,24.139,27.315,23.859z"/>
</svg>